<?xml version="1.0" encoding="UTF-8"?>
<svg width="191px" height="241px" viewBox="0 0 191 241" version="1.1" xmlns="http://www.w3.org/2000/svg" xmlns:xlink="http://www.w3.org/1999/xlink">
    <!-- Generator: Sketch 59.1 (86144) - https://sketch.com -->
    <title>earthquakeIcon-orange</title>
    <desc>Created with Sketch.</desc>
    <defs>
        <linearGradient x1="50%" y1="0%" x2="50%" y2="100%" id="linearGradient-1">
            <stop stop-color="#FFBC00" offset="0%"></stop>
            <stop stop-color="#BE8C00" offset="100%"></stop>
        </linearGradient>
        <path d="M92,0 C142.810197,0 184,39.189803 184,90 C184,123.873465 153.333333,171.206798 92,232 C30.6666667,171.206798 0,123.873465 0,90 C0,39.189803 41.189803,0 92,0 Z M91.5,33 C61.4004811,33 37,57.4004811 37,87.5 C37,117.599519 61.4004811,142 91.5,142 C121.599519,142 146,117.599519 146,87.5 C146,57.4004811 121.599519,33 91.5,33 Z" id="path-2"></path>
        <filter x="-0.8%" y="-0.6%" width="102.7%" height="102.6%" filterUnits="objectBoundingBox" id="filter-3">
            <feOffset dx="2" dy="3" in="SourceAlpha" result="shadowOffsetOuter1"></feOffset>
            <feColorMatrix values="0 0 0 0 0   0 0 0 0 0   0 0 0 0 0  0 0 0 1 0" type="matrix" in="shadowOffsetOuter1"></feColorMatrix>
        </filter>
    </defs>
    <g id="earthquakeIcon-orange" stroke="none" stroke-width="1" fill="none" fill-rule="evenodd">
        <g id="earthquake-icon---orange" transform="translate(4.000000, 5.000000)">
            <polyline id="Line" stroke="#000000" stroke-width="8" stroke-linecap="square" points="37.5 90.5 59.5 90.5 68 71.5 80 116 96.5 58.5 112.5 106 122 90.5 146.5 90.5"></polyline>
            <g id="pointer---orange">
                <use fill="black" fill-opacity="1" filter="url(#filter-3)" xlink:href="#path-2"></use>
                <use fill="url(#linearGradient-1)" fill-rule="evenodd" xlink:href="#path-2"></use>
            </g>
        </g>
    </g>
</svg>